<?xml version="1.0" encoding="UTF-8" standalone="no"?>
<!-- Created with Inkscape (http://www.inkscape.org/) -->

<svg
   width="259.02707mm"
   height="258.49789mm"
   viewBox="0 0 259.02707 258.49789"
   version="1.1"
   id="svg347"
   xml:space="preserve"
   inkscape:version="1.2.2 (b0a8486541, 2022-12-01)"
   sodipodi:docname="logo.svg"
   xmlns:inkscape="http://www.inkscape.org/namespaces/inkscape"
   xmlns:sodipodi="http://sodipodi.sourceforge.net/DTD/sodipodi-0.dtd"
   xmlns:xlink="http://www.w3.org/1999/xlink"
   xmlns="http://www.w3.org/2000/svg"
   xmlns:svg="http://www.w3.org/2000/svg"><sodipodi:namedview
     id="namedview349"
     pagecolor="#ffffff"
     bordercolor="#000000"
     borderopacity="0.25"
     inkscape:showpageshadow="2"
     inkscape:pageopacity="0.0"
     inkscape:pagecheckerboard="0"
     inkscape:deskcolor="#d1d1d1"
     inkscape:document-units="mm"
     showgrid="false"
     inkscape:zoom="0.48896826"
     inkscape:cx="385.50559"
     inkscape:cy="526.61905"
     inkscape:window-width="1854"
     inkscape:window-height="1011"
     inkscape:window-x="66"
     inkscape:window-y="32"
     inkscape:window-maximized="1"
     inkscape:current-layer="layer1" /><defs
     id="defs344"><linearGradient
       inkscape:collect="always"
       id="linearGradient1063"><stop
         style="stop-color:#00ccff;stop-opacity:1;"
         offset="0"
         id="stop1059" /><stop
         style="stop-color:#004eff;stop-opacity:1;"
         offset="1"
         id="stop1061" /></linearGradient><radialGradient
       inkscape:collect="always"
       xlink:href="#linearGradient1063"
       id="radialGradient12365"
       cx="183.46622"
       cy="71.924049"
       fx="183.46622"
       fy="71.924049"
       r="129.51353"
       gradientTransform="matrix(-1.1198265,1.0975543,-1.4800254,-1.510059,495.36598,-20.674111)"
       gradientUnits="userSpaceOnUse" /></defs><g
     inkscape:label="Camada 1"
     inkscape:groupmode="layer"
     id="layer1"
     transform="translate(19.580874,-19.251047)"><path
       style="fill:url(#radialGradient12365);stroke-width:0.264583;fill-opacity:1"
       d="m 95.545997,272.52343 c -0.6011,-9.38837 -1.56268,-15.83927 -3.48911,-23.40713 -5.09612,-20.0198 -15.32104,-37.95005 -30.10915,-52.79887 -11.34953,-11.39612 -24.04515,-19.90694 -38.23585,-25.63234 -12.40089,-5.00328 -23.31138115,-7.46025 -36.894621,-8.30842 -2.57309,-0.16067 -5.0653,-0.34772 -5.53824,-0.41566 l -0.8599,-0.12354 v -13.70651 -13.70651 l 4.42368,-0.18683 c 19.8206709,-0.83707 40.929121,-7.7314 58.414861,-19.07916 11.13073,-7.22353 19.0798,-14.54215 28.58945,-26.322 6.3242,-7.83396 12.80026,-19.570141 16.64374,-30.162498 3.87119,-10.668719 5.99153,-20.855714 6.92517,-33.271353 l 0.46259,-6.151562 h 13.789463 13.78946 l 0.46259,6.151562 c 1.53324,20.389148 6.91941,37.55906 16.87079,53.780269 4.55457,7.42415 10.87826,15.263537 17.85744,22.137602 12.19148,12.00785 28.80869,21.90491 45.96514,27.37643 10.6405,3.39345 20.26068,5.16098 30.20163,5.54899 l 4.63107,0.18076 v 13.69835 13.69837 l -1.38906,0.13771 c -0.76399,0.0757 -3.47266,0.27274 -6.01927,0.43778 -22.22209,1.44017 -41.52508,8.35842 -60.45963,21.66892 -4.45725,3.13333 -5.55881,4.04271 -10.05183,8.29824 -10.05755,9.52592 -15.33089,15.96585 -21.7103,26.51313 -1.95922,3.23925 -6.21654,11.79588 -7.63525,15.34583 -4.95097,12.38847 -7.23639,22.62733 -8.28286,37.10781 l -0.46368,6.41615 H 109.65744 95.880567 Z"
       id="path480" /></g></svg>
